<svg width="30" height="30" viewBox="0 0 30 30" fill="none" xmlns="http://www.w3.org/2000/svg">
<path d="M7.00001 4.00001C6.74413 4.00001 6.48798 4.09748 6.29298 4.29298L4.29298 6.29298C3.90198 6.68398 3.90198 7.31704 4.29298 7.70704L11.5859 15L4.29298 22.293C3.90198 22.684 3.90198 23.317 4.29298 23.707L6.29298 25.707C6.68398 26.098 7.31704 26.098 7.70704 25.707L15 18.4141L22.293 25.707C22.683 26.098 23.317 26.098 23.707 25.707L25.707 23.707C26.098 23.316 26.098 22.683 25.707 22.293L18.4141 15L25.707 7.70704C26.098 7.31704 26.098 6.68298 25.707 6.29298L23.707 4.29298C23.316 3.90198 22.683 3.90198 22.293 4.29298L15 11.5859L7.70704 4.29298C7.51154 4.09748 7.25588 4.00001 7.00001 4.00001Z" fill="#F44336"/>
</svg>
