<svg width="30" height="30" viewBox="0 0 30 30" fill="none" xmlns="http://www.w3.org/2000/svg">
<path d="M15 2C14.7386 2.00002 14.4876 2.10237 14.3008 2.28516L3.39258 11.207C3.37998 11.2165 3.36761 11.2263 3.35547 11.2363L3.31836 11.2676V11.2695C3.21806 11.363 3.13805 11.476 3.08328 11.6017C3.02851 11.7273 3.00017 11.8629 3 12C3 12.2652 3.10536 12.5196 3.29289 12.7071C3.48043 12.8946 3.73478 13 4 13H5V24C5 25.105 5.895 26 7 26H23C24.105 26 25 25.105 25 24V13H26C26.2652 13 26.5196 12.8946 26.7071 12.7071C26.8946 12.5196 27 12.2652 27 12C27.0001 11.8626 26.9719 11.7266 26.9171 11.6006C26.8623 11.4746 26.7822 11.3612 26.6816 11.2676L26.666 11.2559C26.6441 11.236 26.6213 11.2171 26.5977 11.1992L25 9.89258V6C25 5.448 24.552 5 24 5H23C22.448 5 22 5.448 22 6V7.43945L15.6777 2.26758C15.4935 2.09633 15.2515 2.00079 15 2V2ZM18 15H22V23H18V15Z" fill="white"/>
</svg>
