<svg width="28" height="32" viewBox="0 0 28 32" fill="none" xmlns="http://www.w3.org/2000/svg">
<path d="M6.87994 31.3197C5.14522 31.0867 3.6185 30.3267 2.33114 29.0515C-0.451904 26.2928 -0.782784 22.0384 1.5529 18.912C1.88378 18.4583 2.6441 17.6861 3.0793 17.3488C3.55738 16.9747 4.3545 16.5152 4.89402 16.2944L5.3721 16.0983L5.39066 10.9735L5.4089 5.84865L5.63578 5.38881C5.9177 4.81857 6.3225 4.42017 6.8985 4.15041C7.2601 3.97889 7.3705 3.95425 7.83034 3.95425C8.29018 3.95425 8.40058 3.97889 8.76218 4.15041C9.3385 4.42017 9.74298 4.81857 10.0249 5.38881L10.2518 5.84865L10.27 10.9735L10.2886 16.0983L10.7667 16.2944C11.3062 16.5152 12.103 16.9747 12.5811 17.3488C13.1084 17.7536 13.9971 18.7159 14.3526 19.2615C15.254 20.6528 15.6403 21.9341 15.6403 23.5402C15.6403 24.521 15.5484 25.0912 15.2479 26.0045C14.3711 28.6285 11.9987 30.7127 9.28922 31.2336C8.65786 31.3562 7.45018 31.3994 6.87994 31.3197ZM9.5465 30.2039C11.03 29.8176 12.2931 29.0144 13.1695 27.905C13.8316 27.0714 14.2668 26.1946 14.5305 25.1402C14.7084 24.4231 14.7206 22.8413 14.5551 22.0688C13.9849 19.4269 11.9436 17.3856 9.30138 16.8154C8.5289 16.6499 6.94746 16.6621 6.23002 16.84C5.17562 17.1037 4.29882 17.5389 3.46522 18.201C2.31898 19.1082 1.46074 20.5059 1.10522 22.0384C1.01946 22.4247 0.994816 22.7616 1.0009 23.6016C1.00698 24.5517 1.02554 24.7418 1.16634 25.2691C1.88346 27.9725 4.02298 29.9098 6.76314 30.345C6.9593 30.3757 7.5417 30.3879 8.04442 30.3757C8.77434 30.3571 9.08698 30.3264 9.5465 30.2039ZM7.83002 15.7242C8.14874 15.7242 8.61466 15.7488 8.85978 15.7731L9.30106 15.8221V10.9607C9.30106 7.59521 9.27642 6.02593 9.23354 5.85409C9.1417 5.52929 8.67578 5.06337 8.35066 4.97121C8.03802 4.88545 7.62106 4.88545 7.30842 4.97121C6.98362 5.06305 6.5177 5.52897 6.42554 5.85409C6.38266 6.02561 6.35802 7.59521 6.35802 10.9607V15.8224L6.80538 15.7735C7.04538 15.7488 7.5113 15.7242 7.83002 15.7242Z" fill="white"/>
<path d="M3.9068 23.5402V19.617H7.83H11.7532V21.5786V23.5402H11.2626H10.7721V22.0688V20.5975H7.82968H4.88728V23.5399V26.4823H7.33944H9.7916V26.9728V27.4634H6.8492H3.9068V23.5402V23.5402Z" fill="white"/>
<path d="M9.3503 24.7846L7.82999 23.2643L7.27831 23.816L6.72663 24.3677L6.37719 24.0122L6.02167 23.6627L6.92887 22.7555L7.82999 21.8544L9.7119 23.7363L11.5999 25.6243L11.2629 25.9616C11.0789 26.1456 10.9135 26.2989 10.8953 26.2989C10.877 26.2989 10.1842 25.6186 9.3503 24.7846Z" fill="white"/>
<path d="M7.33975 11.2797V10.7891H7.83032H8.32088V11.2797V11.7702H7.83032H7.33975V11.2797Z" fill="white"/>
<path d="M7.33975 9.31808V8.82751H7.83032H8.32088V9.31808V9.80865H7.83032H7.33975V9.31808Z" fill="white"/>
<path d="M7.33975 7.35647V6.86591H7.83032H8.32088V7.35647V7.84703H7.83032H7.33975V7.35647Z" fill="white"/>
<path d="M15.6767 27.9539V27.4634H21.0713H26.4658V16.4291V5.39456H24.2591H22.0521V3.18752V0.9808H15.1865H8.32057V1.9616V2.9424H7.83001H7.33945V1.47104V0H15.0514H22.757L25.1049 2.34784L27.4466 4.6896V16.5702V28.4445H21.5618H15.6767V27.9539ZM25.7305 4.39552C25.7305 4.38944 25.1234 3.77632 24.3817 3.03456L23.0329 1.68576V3.0528V4.41376H24.3817C25.1234 4.41376 25.7305 4.40768 25.7305 4.39552Z" fill="white"/>
<path d="M19.6003 24.521V24.0304H20.0908H20.5811V24.521V25.0115H20.0905H19.6V24.521H19.6003Z" fill="white"/>
<path d="M21.5619 24.521V24.0304H22.0524H22.5427V24.521V25.0115H22.0521H21.5616V24.521H21.5619Z" fill="white"/>
<path d="M23.5235 24.521V24.0304H24.014H24.5043V24.521V25.0115H24.0137H23.5232V24.521H23.5235Z" fill="white"/>
<path d="M16.6575 22.5594V22.0688H20.0905H23.5234V20.1072V18.1456H19.3551H15.1865V17.655V17.1648H19.8454H24.5042V20.1072V23.0496H20.5811H16.6575V22.5594Z" fill="white"/>
<path d="M11.263 13.7318V12.2605H12.7343H14.2057V13.7318V15.2032H12.7343H11.263V13.7318ZM13.2249 13.7318V13.2413H12.7343H12.2438V13.7318V14.2224H12.7343H13.2249V13.7318Z" fill="white"/>
<path d="M15.1865 14.7126V14.2221H19.8454H24.5042V14.7126V15.2032H19.8454H15.1865V14.7126Z" fill="white"/>
<path d="M15.1865 12.751V12.2605H19.8454H24.5042V12.751V13.2416H19.8454H15.1865V12.751Z" fill="white"/>
<path d="M11.263 9.8083V8.33694H12.7343H14.2057V9.8083V11.2797H12.7343H11.263V9.8083ZM13.2249 9.8083V9.31774H12.7343H12.2438V9.8083V10.2989H12.7343H13.2249V9.8083Z" fill="white"/>
<path d="M15.1865 10.7895V10.2989H19.8454H24.5042V10.7895V11.28H19.8454H15.1865V10.7895Z" fill="white"/>
<path d="M15.1865 8.82751V8.33694H19.8454H24.5042V8.82751V9.31808H19.8454H15.1865V8.82751Z" fill="white"/>
<path d="M11.263 5.88512V4.41376H12.7343H14.2057V5.88512V7.35649H12.7343H11.263V5.88512ZM13.2249 5.88512V5.39456H12.7343H12.2438V5.88512V6.37569H12.7343H13.2249V5.88512Z" fill="white"/>
<path d="M15.1865 6.86593V6.37537H19.8454H24.5042V6.86593V7.35649H19.8454H15.1865V6.86593Z" fill="white"/>
<path d="M15.1865 4.9043V4.41376H17.6387H20.0908V4.9043V5.39485H17.6387H15.1865V4.9043Z" fill="white"/>
</svg>
