<svg width="30" height="30" viewBox="0 0 30 30" fill="none" xmlns="http://www.w3.org/2000/svg">
<path d="M3.01424 7.0001C2.88173 6.99823 2.75017 7.02271 2.6272 7.07212C2.50423 7.12153 2.39231 7.1949 2.29794 7.28794C2.20357 7.38098 2.12863 7.49186 2.07749 7.61411C2.02634 7.73637 2 7.86757 2 8.0001C2 8.13263 2.02634 8.26383 2.07749 8.38609C2.12863 8.50834 2.20357 8.61922 2.29794 8.71226C2.39231 8.8053 2.50423 8.87867 2.6272 8.92808C2.75017 8.97749 2.88173 9.00197 3.01424 9.0001H27.0142C27.1468 9.00197 27.2783 8.97749 27.4013 8.92808C27.5243 8.87867 27.6362 8.8053 27.7305 8.71226C27.8249 8.61922 27.8999 8.50834 27.951 8.38609C28.0021 8.26383 28.0285 8.13263 28.0285 8.0001C28.0285 7.86757 28.0021 7.73637 27.951 7.61411C27.8999 7.49186 27.8249 7.38098 27.7305 7.28794C27.6362 7.1949 27.5243 7.12153 27.4013 7.07212C27.2783 7.02271 27.1468 6.99823 27.0142 7.0001H3.01424ZM3.01424 14.0001C2.88173 13.9982 2.75017 14.0227 2.6272 14.0721C2.50423 14.1215 2.39231 14.1949 2.29794 14.2879C2.20357 14.381 2.12863 14.4919 2.07749 14.6141C2.02634 14.7364 2 14.8676 2 15.0001C2 15.1326 2.02634 15.2638 2.07749 15.3861C2.12863 15.5083 2.20357 15.6192 2.29794 15.7123C2.39231 15.8053 2.50423 15.8787 2.6272 15.9281C2.75017 15.9775 2.88173 16.002 3.01424 16.0001H27.0142C27.1468 16.002 27.2783 15.9775 27.4013 15.9281C27.5243 15.8787 27.6362 15.8053 27.7305 15.7123C27.8249 15.6192 27.8999 15.5083 27.951 15.3861C28.0021 15.2638 28.0285 15.1326 28.0285 15.0001C28.0285 14.8676 28.0021 14.7364 27.951 14.6141C27.8999 14.4919 27.8249 14.381 27.7305 14.2879C27.6362 14.1949 27.5243 14.1215 27.4013 14.0721C27.2783 14.0227 27.1468 13.9982 27.0142 14.0001H3.01424ZM3.01424 21.0001C2.88173 20.9982 2.75017 21.0227 2.6272 21.0721C2.50423 21.1215 2.39231 21.1949 2.29794 21.2879C2.20357 21.381 2.12863 21.4919 2.07749 21.6141C2.02634 21.7364 2 21.8676 2 22.0001C2 22.1326 2.02634 22.2638 2.07749 22.3861C2.12863 22.5083 2.20357 22.6192 2.29794 22.7123C2.39231 22.8053 2.50423 22.8787 2.6272 22.9281C2.75017 22.9775 2.88173 23.002 3.01424 23.0001H27.0142C27.1468 23.002 27.2783 22.9775 27.4013 22.9281C27.5243 22.8787 27.6362 22.8053 27.7305 22.7123C27.8249 22.6192 27.8999 22.5083 27.951 22.3861C28.0021 22.2638 28.0285 22.1326 28.0285 22.0001C28.0285 21.8676 28.0021 21.7364 27.951 21.6141C27.8999 21.4919 27.8249 21.381 27.7305 21.2879C27.6362 21.1949 27.5243 21.1215 27.4013 21.0721C27.2783 21.0227 27.1468 20.9982 27.0142 21.0001H3.01424Z" fill="white"/>
</svg>
