<svg width="30" height="30" viewBox="0 0 30 30" fill="none" xmlns="http://www.w3.org/2000/svg">
<path d="M14.9844 2.48633C14.7195 2.49047 14.4671 2.59953 14.2825 2.78957C14.098 2.97962 13.9964 3.23512 14 3.5V4H8.5C8.36753 3.9982 8.23603 4.02274 8.11313 4.07219C7.99023 4.12164 7.87838 4.19501 7.78407 4.28805C7.68976 4.38108 7.61487 4.49193 7.56376 4.61415C7.51265 4.73637 7.48633 4.86752 7.48633 5H6C5.86749 4.99813 5.73592 5.02261 5.61296 5.07202C5.48999 5.12143 5.37807 5.1948 5.2837 5.28784C5.18933 5.38088 5.11439 5.49176 5.06324 5.61401C5.0121 5.73627 4.98576 5.86747 4.98576 6C4.98576 6.13253 5.0121 6.26373 5.06324 6.38599C5.11439 6.50824 5.18933 6.61912 5.2837 6.71216C5.37807 6.8052 5.48999 6.87857 5.61296 6.92798C5.73592 6.97739 5.86749 7.00187 6 7H24C24.1325 7.00187 24.2641 6.97739 24.387 6.92798C24.51 6.87857 24.6219 6.8052 24.7163 6.71216C24.8107 6.61912 24.8856 6.50824 24.9368 6.38599C24.9879 6.26373 25.0142 6.13253 25.0142 6C25.0142 5.86747 24.9879 5.73627 24.9368 5.61401C24.8856 5.49176 24.8107 5.38088 24.7163 5.28784C24.6219 5.1948 24.51 5.12143 24.387 5.07202C24.2641 5.02261 24.1325 4.99813 24 5H22.5137C22.5137 4.86752 22.4873 4.73637 22.4362 4.61415C22.3851 4.49193 22.3102 4.38108 22.2159 4.28805C22.1216 4.19501 22.0098 4.12164 21.8869 4.07219C21.764 4.02274 21.6325 3.9982 21.5 4H16V3.5C16.0018 3.36621 15.9768 3.23341 15.9264 3.10947C15.876 2.98553 15.8012 2.87297 15.7065 2.77845C15.6118 2.68393 15.4991 2.60937 15.375 2.55919C15.251 2.50902 15.1182 2.48424 14.9844 2.48633ZM6 9L7.79297 24.2344C7.91097 25.2414 8.76334 26 9.77734 26H20.2227C21.2367 26 22.088 25.2414 22.207 24.2344L24 9H6Z" fill="#F44336"/>
</svg>
